<svg id="Layer_1" data-name="Layer 1" xmlns="http://www.w3.org/2000/svg" viewBox="0 0 1257.6 600"><defs><style>.cls-1{fill:#fff;}</style></defs><path class="cls-1" d="M191.41,96.16a76.28,76.28,0,0,1,3,152.37c-1.63.1-3.28.16-4.94.16-1.3,0-2.6,0-3.88-.1h-.05a76,76,0,0,1-46.92-19.33v56.66A101.7,101.7,0,1,0,191.41,96.16ZM100.76,148a72.64,72.64,0,0,1,15.18,4,76.29,76.29,0,0,1,71.53-55.83A101.67,101.67,0,0,0,100.76,148Z"/><path class="cls-1" d="M265.72,172.41a76.28,76.28,0,0,1-71.34,76.12,50.85,50.85,0,1,0-8.87.06,76,76,0,0,1-46.92-19.33V337.35c0,8.13-5.7,15.49-14.9,20.82s-21.91,8.62-35.95,8.62v-169a101.09,101.09,0,0,1,13-49.82,72.64,72.64,0,0,1,15.18,4,76.29,76.29,0,0,1,71.53-55.83c.65,0,1.31,0,2,0s1.32,0,2,0A76.28,76.28,0,0,1,265.72,172.41Z"/><path class="cls-1" d="M113.16,446.11h0a25.42,25.42,0,0,1-25.42-25.43V268.77a25.42,25.42,0,0,1,25.42-25.43h0a25.43,25.43,0,0,1,25.43,25.43V420.69A25.43,25.43,0,0,1,113.16,446.11Z"/><path class="cls-1" d="M256.19,318.9h0a26.65,26.65,0,0,1,11.64,35.86l-39.15,76.79a26.65,26.65,0,0,1-35.86,11.64h0a26.66,26.66,0,0,1-11.64-35.86l39.15-76.79A26.67,26.67,0,0,1,256.19,318.9Z"/><path class="cls-1" d="M321,318.9h0a26.66,26.66,0,0,1,11.65,35.86l-39.15,76.79a26.65,26.65,0,0,1-35.86,11.64h0A26.66,26.66,0,0,1,246,407.33l39.15-76.79A26.66,26.66,0,0,1,321,318.9Z"/><path class="cls-1" d="M168.83,416.65l31.09-57.46L186,330.7a26.67,26.67,0,0,0-35.65-12.28h0a26.66,26.66,0,0,0-12.28,35.64l29.17,59.86A25,25,0,0,0,168.83,416.65Z"/><path class="cls-1" d="M174.78,326.89h0a26.67,26.67,0,0,1,7.35,37l-45.36,67.88a26.66,26.66,0,0,1-37,7.35h0a26.67,26.67,0,0,1-7.35-37l45.36-67.88A26.67,26.67,0,0,1,174.78,326.89Z"/><path class="cls-1" d="M369.92,316A65.06,65.06,0,1,0,435,381.05,65.06,65.06,0,0,0,369.92,316Zm0,95.93a30.87,30.87,0,1,1,30.87-30.87A30.87,30.87,0,0,1,369.92,411.92Z"/><path class="cls-1" d="M316.35,416.92l28.09-57.46L331.89,331c-5.82-13.23-20.24-18.73-32.2-12.28h0c-11.95,6.44-16.92,22.4-11.1,35.64L315,414.19A28,28,0,0,0,316.35,416.92Z"/><path class="cls-1" d="M422.78,430.09l17.88-48.6-8-24.09C429,346.21,419.79,341.55,412.18,347h0c-7.62,5.45-10.78,18.95-7.07,30.14l16.78,50.63C422.15,428.59,422.46,429.35,422.78,430.09Z"/><path class="cls-1" d="M445.53,444.94h0a25.42,25.42,0,0,1-25.42-25.43V267.6a25.43,25.43,0,0,1,25.42-25.43h0A25.43,25.43,0,0,1,471,267.6V419.52A25.42,25.42,0,0,1,445.53,444.94Z"/><path class="cls-1" d="M430.67,335.67h0c0-7.75,4-14,8.89-14h53.08c4.91,0,8.89,6.28,8.89,14h0c0,7.74-4,14-8.89,14H439.55C434.65,349.69,430.67,343.41,430.67,335.67Z"/><path class="cls-1" d="M564.13,328.55a60.89,60.89,0,1,0,1.72,107c.15-.07.29-.16.44-.24V329.73C565.58,329.32,564.86,328.93,564.13,328.55Zm-70.08,32.86a27.24,27.24,0,0,1,54.48,0C548.53,376.45,494.05,376.45,494.05,361.41Zm69.43,53.31a27.27,27.27,0,0,1-43-8.43c-5.4-11.35,28.06-29.55,43-27.29Z"/><path class="cls-1" d="M566.29,411.73a26.4,26.4,0,0,1-2.81,3V379a10.71,10.71,0,0,1,2.81.76,6.37,6.37,0,0,1,3.41,3.14A27.25,27.25,0,0,1,566.29,411.73Z"/><path class="cls-1" d="M614.33,332.16v96.62c0,8.92-11.38,16.16-25.42,16.16-10.22,0-19-3.83-23.06-9.35a11.45,11.45,0,0,1-2.37-6.82V332.16a10.34,10.34,0,0,1,.65-3.61c2.57-7.19,12.68-12.56,24.78-12.56a33.88,33.88,0,0,1,18,4.74C611.48,323.65,614.33,327.7,614.33,332.16Z"/><path class="cls-1" d="M563.84,352.72h0c0-10.25,4-18.55,9-18.55H627c5,0,9.06,8.3,9.06,18.55h0c0,10.25-4.06,18.56-9.06,18.56H572.89C567.89,371.28,563.84,363,563.84,352.72Z"/><path class="cls-1" d="M760.57,321h0a26.66,26.66,0,0,1,11.64,35.86l-39.15,76.8a26.66,26.66,0,0,1-35.86,11.64h0a26.65,26.65,0,0,1-11.64-35.86l39.15-76.79A26.67,26.67,0,0,1,760.57,321Z"/><path class="cls-1" d="M825.4,321h0A26.66,26.66,0,0,1,837,356.84l-39.15,76.8A26.66,26.66,0,0,1,762,445.28h0a26.65,26.65,0,0,1-11.64-35.86l39.15-76.79A26.66,26.66,0,0,1,825.4,321Z"/><path class="cls-1" d="M673.2,418.73l31.1-57.45-13.89-28.49a26.65,26.65,0,0,0-35.64-12.29h0a26.66,26.66,0,0,0-12.29,35.65L671.66,416A26.57,26.57,0,0,0,673.2,418.73Z"/><path class="cls-1" d="M874.29,318.07a65.06,65.06,0,1,0,65.06,65.06A65.06,65.06,0,0,0,874.29,318.07Zm0,95.93a30.87,30.87,0,1,1,30.87-30.87A30.87,30.87,0,0,1,874.29,414Z"/><path class="cls-1" d="M820.72,419l28.09-57.45-12.54-28.49c-5.83-13.24-20.25-18.74-32.2-12.29h0c-12,6.45-16.93,22.41-11.1,35.64l26.36,59.87A26.71,26.71,0,0,0,820.72,419Z"/><path class="cls-1" d="M985.89,334.15v97.7c0,9-11.38,16.34-25.42,16.34-10.21,0-19-3.87-23.06-9.45a11.68,11.68,0,0,1-2.37-6.9V334.15a10.38,10.38,0,0,1,.66-3.65c2.56-7.27,12.68-12.7,24.77-12.7a33.57,33.57,0,0,1,18,4.8C983,325.55,985.89,329.64,985.89,334.15Z"/><path class="cls-1" d="M935.4,355h0c0-10.36,4.06-18.76,9.06-18.76h54.12c5,0,9.06,8.4,9.06,18.76h0c0,10.36-4.06,18.76-9.06,18.76H944.46C939.46,373.71,935.4,365.31,935.4,355Z"/><path class="cls-1" d="M1037.57,448.19h0a25.42,25.42,0,0,1-25.43-25.43V270.85a25.43,25.43,0,0,1,25.43-25.43h0A25.43,25.43,0,0,1,1063,270.85V422.77A25.42,25.42,0,0,1,1037.57,448.19Z"/><path class="cls-1" d="M1120.91,348.81h0c4,9,.26,18.48-8.38,21.18L1062,385.77c-8.64,2.69-18.9-2.42-22.91-11.42h0c-4-9-.27-18.47,8.37-21.17L1098,337.4C1106.64,334.71,1116.9,339.82,1120.91,348.81Z"/><path class="cls-1" d="M1131.63,392.56c-14.83,0-26.85-9.8-26.85-21.88s12-21.87,26.85-21.87,26.84,9.79,26.84,21.87"/><path class="cls-1" d="M1106.06,440h0c-5.85,7.78-15.24,9-21,2.7l-33.61-36.77c-5.74-6.29-5.65-17.68.19-25.45h0c5.85-7.78,15.24-9,21-2.71l33.61,36.78C1112,420.8,1111.9,432.19,1106.06,440Z"/><path class="cls-1" d="M1131.63,392.56c14.82,0,26.84,9.79,26.84,21.87s-12,21.88-26.84,21.88-26.85-9.8-26.85-21.88"/></svg>