<svg id="Layer_1" data-name="Layer 1" xmlns="http://www.w3.org/2000/svg" viewBox="0 0 247.87 349.95"><defs><style>.cls-1{fill:#fff;}</style></defs><path class="cls-1" d="M103.7,0a76.27,76.27,0,0,1,3,152.36c-1.63.11-3.28.17-4.94.17-1.3,0-2.6,0-3.88-.1h0A76.05,76.05,0,0,1,50.88,133.1v56.66A101.7,101.7,0,1,0,103.7,0ZM13.05,51.86a72.64,72.64,0,0,1,15.18,4A76.3,76.3,0,0,1,99.77,0,101.68,101.68,0,0,0,13.05,51.86Z"/><path class="cls-1" d="M178,76.25a76.27,76.27,0,0,1-71.34,76.11,50.8,50.8,0,1,0-8.86.07A76.05,76.05,0,0,1,50.88,133.1V241.19c0,8.13-5.7,15.49-14.9,20.82S14.07,270.63,0,270.63V101.68a101.09,101.09,0,0,1,13-49.82,72.64,72.64,0,0,1,15.18,4A76.29,76.29,0,0,1,99.76,0c.66,0,1.31,0,2,0s1.32,0,2,0A76.28,76.28,0,0,1,178,76.25Z"/><path class="cls-1" d="M25.45,350h0A25.43,25.43,0,0,1,0,324.52V172.61a25.42,25.42,0,0,1,25.42-25.43h0a25.42,25.42,0,0,1,25.43,25.43V324.53A25.43,25.43,0,0,1,25.45,350Z"/><path class="cls-1" d="M168.48,222.74h0a26.65,26.65,0,0,1,11.64,35.86L141,335.39A26.67,26.67,0,0,1,105.11,347h0a26.66,26.66,0,0,1-11.64-35.86l39.15-76.79A26.67,26.67,0,0,1,168.48,222.74Z"/><path class="cls-1" d="M233.31,222.74h0A26.66,26.66,0,0,1,245,258.6l-39.15,76.79A26.65,26.65,0,0,1,170,347h0a26.65,26.65,0,0,1-11.64-35.86l39.14-76.79A26.66,26.66,0,0,1,233.31,222.74Z"/><path class="cls-1" d="M81.12,320.49,112.21,263,98.33,234.54a26.67,26.67,0,0,0-35.65-12.28h0A26.66,26.66,0,0,0,50.4,257.9l29.17,59.86A25,25,0,0,0,81.12,320.49Z"/><path class="cls-1" d="M87.07,230.73h0a26.66,26.66,0,0,1,7.35,37L49.06,335.59a26.66,26.66,0,0,1-37,7.35h0a26.67,26.67,0,0,1-7.35-37l45.36-67.88A26.67,26.67,0,0,1,87.07,230.73Z"/></svg>