<svg id="Layer_1" data-name="Layer 1" xmlns="http://www.w3.org/2000/svg" viewBox="0 0 1280 1280"><defs><style>.cls-1{fill:#09f;}</style></defs><path class="cls-1" d="M613.15,419.91A29.1,29.1,0,0,1,614.29,478c-.63,0-1.25.06-1.89.06s-1,0-1.48,0h0a28.92,28.92,0,0,1-17.9-7.37V492.3a38.8,38.8,0,1,0,20.15-72.39Zm-34.58,19.78a27.55,27.55,0,0,1,5.79,1.52,29.11,29.11,0,0,1,27.29-21.3A38.78,38.78,0,0,0,578.57,439.69Z"/><path class="cls-1" d="M641.5,449a29.1,29.1,0,0,1-27.21,29,19.41,19.41,0,1,0-3.39,0,28.92,28.92,0,0,1-17.9-7.37v41.23c0,3.11-2.17,5.91-5.68,7.95a27.89,27.89,0,0,1-13.71,3.29V458.69a38.64,38.64,0,0,1,5-19,27.55,27.55,0,0,1,5.79,1.52,29.11,29.11,0,0,1,27.29-21.3h1.5A29.1,29.1,0,0,1,641.5,449Z"/><path class="cls-1" d="M583.3,564.09h0a9.7,9.7,0,0,1-9.69-9.7v-58a9.7,9.7,0,0,1,9.69-9.7h0a9.7,9.7,0,0,1,9.7,9.7v58A9.7,9.7,0,0,1,583.3,564.09Z"/><path class="cls-1" d="M637.87,515.56h0a10.17,10.17,0,0,1,4.44,13.68l-14.94,29.29A10.16,10.16,0,0,1,613.69,563h0a10.17,10.17,0,0,1-4.44-13.68L624.19,520A10.17,10.17,0,0,1,637.87,515.56Z"/><path class="cls-1" d="M662.6,515.56h0A10.17,10.17,0,0,1,667,529.24L652.1,558.53A10.16,10.16,0,0,1,638.42,563h0A10.17,10.17,0,0,1,634,549.29L648.92,520A10.17,10.17,0,0,1,662.6,515.56Z"/><path class="cls-1" d="M604.54,552.85l11.86-21.92-5.3-10.87a10.16,10.16,0,0,0-13.59-4.69h0a10.17,10.17,0,0,0-4.69,13.6L604,551.81A11.66,11.66,0,0,0,604.54,552.85Z"/><path class="cls-1" d="M606.81,518.61h0a10.15,10.15,0,0,1,2.8,14.1l-17.3,25.9a10.17,10.17,0,0,1-14.11,2.8h0a10.18,10.18,0,0,1-2.8-14.11l17.3-25.89A10.18,10.18,0,0,1,606.81,518.61Z"/></svg>