<svg id="Layer_1" data-name="Layer 1" xmlns="http://www.w3.org/2000/svg" viewBox="0 0 253.99 385.02"><defs><style>.cls-1{fill:#fff;}</style></defs><path class="cls-1" d="M106.76,5a76.27,76.27,0,0,1,3,152.36c-1.63.11-3.28.16-4.94.16-1.3,0-2.59,0-3.88-.1h0A75.94,75.94,0,0,1,53.94,138v56.67A101.7,101.7,0,1,0,106.76,5ZM16.11,56.81a72.48,72.48,0,0,1,15.18,4A76.29,76.29,0,0,1,102.83,5,101.65,101.65,0,0,0,16.11,56.81Z"/><path class="cls-1" d="M181.07,81.2a76.27,76.27,0,0,1-71.34,76.11,50.86,50.86,0,1,0-8.86.06A75.94,75.94,0,0,1,53.94,138V246.13c0,8.14-5.69,15.49-14.9,20.82s-21.91,8.63-35.95,8.63v-169a101.08,101.08,0,0,1,13-49.81,72.48,72.48,0,0,1,15.18,4A76.29,76.29,0,0,1,102.83,5c.65,0,1.3,0,2,0s1.32,0,2,0A76.27,76.27,0,0,1,181.07,81.2Z"/><path class="cls-1" d="M28.51,382.89h0A25.42,25.42,0,0,1,3.09,357.47V205.55a25.42,25.42,0,0,1,25.42-25.42h0a25.42,25.42,0,0,1,25.43,25.42V357.48A25.42,25.42,0,0,1,28.51,382.89Z"/><path class="cls-1" d="M171.54,255.68h0a26.67,26.67,0,0,1,11.64,35.87L144,368.34A26.66,26.66,0,0,1,108.18,380h0a26.67,26.67,0,0,1-11.65-35.86l39.15-76.79A26.67,26.67,0,0,1,171.54,255.68Z"/><path class="cls-1" d="M236.38,255.68h0A26.67,26.67,0,0,1,248,291.55l-39.15,76.79A26.66,26.66,0,0,1,173,380h0a26.65,26.65,0,0,1-11.64-35.86l39.14-76.79A26.68,26.68,0,0,1,236.38,255.68Z"/><path class="cls-1" d="M84.18,353.43,115.27,296l-13.88-28.49A26.66,26.66,0,0,0,65.75,255.2h0a26.66,26.66,0,0,0-12.29,35.65l29.17,59.86A25.6,25.6,0,0,0,84.18,353.43Z"/><path class="cls-1" d="M90.13,263.68h0a26.65,26.65,0,0,1,7.35,37L52.12,368.53a26.65,26.65,0,0,1-37,7.35h0a26.67,26.67,0,0,1-7.35-37L53.15,271A26.67,26.67,0,0,1,90.13,263.68Z"/></svg>