<svg id="Layer_1" data-name="Layer 1" xmlns="http://www.w3.org/2000/svg" viewBox="0 0 1280 1280"><defs><style>.cls-1,.cls-2{fill:#09f;}.cls-2{stroke:#000;stroke-miterlimit:10;}</style></defs><path class="cls-1" d="M653.59,419.92a58.85,58.85,0,0,1,2.3,117.55c-1.26.09-2.54.13-3.82.13-1,0-2,0-3-.08h0a58.67,58.67,0,0,1-36.2-14.91v43.72a78.47,78.47,0,1,0,40.75-146.41Zm-69.94,40A56,56,0,0,1,595.36,463a58.86,58.86,0,0,1,55.2-43.07A78.43,78.43,0,0,0,583.65,459.93Z"/><path class="cls-2" d="M655.89,537.47q-1.83.18-3.69.18c-1.05,0-2.09,0-3.13-.13,1,.05,2,.08,3,.08C653.35,537.6,654.63,537.56,655.89,537.47Z"/><path class="cls-1" d="M710.92,478.75a58.84,58.84,0,0,1-55,58.72,39.22,39.22,0,1,0-6.85,0,58.67,58.67,0,0,1-36.2-14.91V606c0,6.28-4.4,12-11.49,16.07s-16.91,6.65-27.74,6.65V498.37a78.05,78.05,0,0,1,10-38.44A56,56,0,0,1,595.36,463a58.86,58.86,0,0,1,55.2-43.07c.5,0,1,0,1.51,0s1,0,1.52,0A58.84,58.84,0,0,1,710.92,478.75Z"/><path class="cls-1" d="M593.22,711.52h0a19.61,19.61,0,0,1-19.61-19.62V574.69a19.61,19.61,0,0,1,19.61-19.61h0a19.61,19.61,0,0,1,19.62,19.61V691.91A19.61,19.61,0,0,1,593.22,711.52Z"/><path class="cls-1" d="M703.57,613.37h0a20.56,20.56,0,0,1,9,27.67l-30.2,59.25a20.57,20.57,0,0,1-27.67,9h0a20.57,20.57,0,0,1-9-27.67l30.21-59.25A20.57,20.57,0,0,1,703.57,613.37Z"/><path class="cls-1" d="M753.59,613.37h0a20.56,20.56,0,0,1,9,27.67l-30.2,59.25a20.57,20.57,0,0,1-27.67,9h0a20.57,20.57,0,0,1-9-27.67l30.21-59.25A20.57,20.57,0,0,1,753.59,613.37Z"/><path class="cls-1" d="M636.17,688.79l24-44.33-10.71-22A20.58,20.58,0,0,0,622,613h0a20.56,20.56,0,0,0-9.48,27.5L635,686.69A19.6,19.6,0,0,0,636.17,688.79Z"/><path class="cls-1" d="M640.76,619.54h0a20.56,20.56,0,0,1,5.67,28.53l-35,52.37a20.58,20.58,0,0,1-28.53,5.67h0a20.55,20.55,0,0,1-5.67-28.53l35-52.37A20.58,20.58,0,0,1,640.76,619.54Z"/></svg>